name rise30.6535peak61.5555fall82.9339.mot
datacolumns 19
datarows 15
range 8.03496200000000 8.05829500000000
endheader
time	ground_force1_vx	ground_force1_vy	ground_force1_vz	ground_force1_px	ground_force1_py	ground_force1_pz	ground_force2_vx	ground_force2_vy	ground_force2_vz	ground_force2_px	ground_force2_py	ground_force2_pz	ground_torque1_x	ground_torque1_y	ground_torque1_z	ground_torque2_x	ground_torque2_y	ground_torque2_z	
8.03496200000000	64.37786199999999	779.60924000000000	50.66276200000000	0.33464100000000	0.00000000000000	0.11387200000000	0.00000000000000	0.00000000000000	0.00000000000000	0.00000000000000	0.00000000000000	0.00000000000000	0.00000000000000	18.30397700000000	0.00000000000000	0.00000000000000	0.00000000000000	0.00000000000000	
8.03663000000000	63.85559900000000	781.83474600000000	50.85248200000000	0.33386700000000	0.00000000000000	0.11388000000000	0.00000000000000	0.00000000000000	0.00000000000000	0.00000000000000	0.00000000000000	0.00000000000000	0.00000000000000	18.43501200000000	0.00000000000000	0.00000000000000	0.00000000000000	0.00000000000000	
8.03829800000000	63.33591400000000	783.91441399999997	51.04153800000000	0.33310700000000	0.00000000000000	0.11389000000000	0.00000000000000	0.00000000000000	0.00000000000000	0.00000000000000	0.00000000000000	0.00000000000000	0.00000000000000	18.56741800000000	0.00000000000000	0.00000000000000	0.00000000000000	0.00000000000000	
8.03996300000000	62.81907800000000	785.84854199999995	51.22932600000000	0.33235900000000	0.00000000000000	0.11390200000000	0.00000000000000	0.00000000000000	0.00000000000000	0.00000000000000	0.00000000000000	0.00000000000000	0.00000000000000	18.70075900000000	0.00000000000000	0.00000000000000	0.00000000000000	0.00000000000000	
8.04163200000000	62.30531300000000	787.63757499999997	51.41519200000000	0.33162300000000	0.00000000000000	0.11391700000000	0.00000000000000	0.00000000000000	0.00000000000000	0.00000000000000	0.00000000000000	0.00000000000000	0.00000000000000	18.83456600000000	0.00000000000000	0.00000000000000	0.00000000000000	0.00000000000000	
8.04329700000000	61.79479500000000	789.28210799999999	51.59843200000000	0.33089700000000	0.00000000000000	0.11393300000000	0.00000000000000	0.00000000000000	0.00000000000000	0.00000000000000	0.00000000000000	0.00000000000000	0.00000000000000	18.96833500000000	0.00000000000000	0.00000000000000	0.00000000000000	0.00000000000000	
8.04496800000000	61.28765500000000	790.78289199999995	51.77830700000000	0.33018000000000	0.00000000000000	0.11395100000000	0.00000000000000	0.00000000000000	0.00000000000000	0.00000000000000	0.00000000000000	0.00000000000000	0.00000000000000	19.10153900000000	0.00000000000000	0.00000000000000	0.00000000000000	0.00000000000000	
8.04662800000000	60.78398600000000	792.14083300000004	51.95404500000000	0.32947000000000	0.00000000000000	0.11397100000000	0.00000000000000	0.00000000000000	0.00000000000000	0.00000000000000	0.00000000000000	0.00000000000000	0.00000000000000	19.23362800000000	0.00000000000000	0.00000000000000	0.00000000000000	0.00000000000000	
8.04829600000000	60.28384300000000	793.35700099999997	52.12485200000000	0.32876700000000	0.00000000000000	0.11399300000000	0.00000000000000	0.00000000000000	0.00000000000000	0.00000000000000	0.00000000000000	0.00000000000000	0.00000000000000	19.36403500000000	0.00000000000000	0.00000000000000	0.00000000000000	0.00000000000000	
8.04996700000000	59.78724900000000	794.43262700000002	52.28991600000000	0.32806900000000	0.00000000000000	0.11401700000000	0.00000000000000	0.00000000000000	0.00000000000000	0.00000000000000	0.00000000000000	0.00000000000000	0.00000000000000	19.49218000000000	0.00000000000000	0.00000000000000	0.00000000000000	0.00000000000000	
8.05162900000000	59.29419800000000	795.36910499999999	52.44841900000000	0.32737400000000	0.00000000000000	0.11404300000000	0.00000000000000	0.00000000000000	0.00000000000000	0.00000000000000	0.00000000000000	0.00000000000000	0.00000000000000	19.61747700000000	0.00000000000000	0.00000000000000	0.00000000000000	0.00000000000000	
8.05329400000000	58.80465600000000	796.16799400000002	52.59954200000000	0.32668000000000	0.00000000000000	0.11407000000000	0.00000000000000	0.00000000000000	0.00000000000000	0.00000000000000	0.00000000000000	0.00000000000000	0.00000000000000	19.73933700000000	0.00000000000000	0.00000000000000	0.00000000000000	0.00000000000000	
8.05497500000000	58.31856900000000	796.83101999999997	52.74247200000000	0.32598800000000	0.00000000000000	0.11409900000000	0.00000000000000	0.00000000000000	0.00000000000000	0.00000000000000	0.00000000000000	0.00000000000000	0.00000000000000	19.85717100000000	0.00000000000000	0.00000000000000	0.00000000000000	0.00000000000000	
8.05663100000000	57.83585900000000	797.36006999999995	52.87640800000000	0.32529400000000	0.00000000000000	0.11412900000000	0.00000000000000	0.00000000000000	0.00000000000000	0.00000000000000	0.00000000000000	0.00000000000000	0.00000000000000	19.97039800000000	0.00000000000000	0.00000000000000	0.00000000000000	0.00000000000000	
8.05829500000000	57.35643600000000	797.75719500000002	53.00057200000000	0.32459800000000	0.00000000000000	0.11416100000000	0.00000000000000	0.00000000000000	0.00000000000000	0.00000000000000	0.00000000000000	0.00000000000000	0.00000000000000	20.07844800000000	0.00000000000000	0.00000000000000	0.00000000000000	0.00000000000000	
